<svg width="26" height="26" viewBox="0 0 26 26" fill="none" xmlns="http://www.w3.org/2000/svg">
<path d="M3.67157 22.3236C2.52421 21.1763 1.62544 19.8504 0.975261 18.3461C0.325087 16.8418 0 15.2865 0 13.6801C0 12.0738 0.305964 10.4866 0.917893 8.91857C1.52982 7.3505 2.52421 5.87805 3.90105 4.50121C4.79344 3.60881 5.89619 2.8439 7.20929 2.20647C8.52238 1.56905 10.0777 1.06548 11.8752 0.695775C13.6728 0.326068 15.7253 0.102969 18.0328 0.0264777C20.3403 -0.0500134 22.9218 0.0392262 25.7775 0.294197C25.9815 2.99688 26.0452 5.48284 25.9687 7.75208C25.8922 10.0213 25.6819 12.0675 25.3377 13.8905C24.9935 15.7135 24.509 17.3071 23.8843 18.6712C23.2597 20.0353 22.4884 21.1763 21.5705 22.0942C20.2191 23.4455 18.7849 24.4335 17.2679 25.0582C15.7508 25.6829 14.2018 25.9952 12.621 25.9952C10.9637 25.9952 9.34466 25.6701 7.76385 25.0199C6.18303 24.3698 4.81894 23.471 3.67157 22.3236ZM7.95507 21.7117C8.69449 22.1452 9.45302 22.4575 10.2307 22.6487C11.0083 22.8399 11.8051 22.9356 12.621 22.9356C13.7939 22.9356 14.954 22.6997 16.1014 22.228C17.2487 21.7563 18.3451 20.9978 19.3905 19.9524C19.8494 19.4935 20.3148 18.8497 20.7865 18.021C21.2581 17.1924 21.6661 16.1087 22.0103 14.7701C22.3545 13.4315 22.6159 11.8125 22.7943 9.91295C22.9728 8.01342 22.9983 5.75056 22.8708 3.12437C21.6215 3.07337 20.2128 3.05425 18.6447 3.067C17.0766 3.07975 15.5149 3.20086 13.9596 3.43033C12.4043 3.6598 10.9255 4.02951 9.52314 4.53945C8.1208 5.04939 6.97344 5.75056 6.08104 6.64296C4.93368 7.79032 4.14327 8.92494 3.70982 10.0468C3.27637 11.1687 3.05964 12.2523 3.05964 13.2977C3.05964 14.802 3.34649 16.1215 3.92017 17.2561C4.49385 18.3907 4.99742 19.1875 5.43087 19.6464C6.50174 17.6067 7.91683 15.6498 9.67612 13.7758C11.4354 11.9017 13.4879 10.3655 15.8337 9.16716C13.9979 10.7735 12.3979 12.5901 11.0338 14.6172C9.66975 16.6442 8.64349 19.009 7.95507 21.7117Z" fill="#8D734A"/>
</svg>
